<svg xmlns="http://www.w3.org/2000/svg" fill="none" viewBox="0 0 164 45">
  <g clip-path="url(#a)">
    <mask id="c" width="164" height="45" x="0" y="0" maskUnits="userSpaceOnUse" style="mask-type:luminance">
      <path fill="#fff" d="M0 0h164v45H0V0Z"/>
    </mask>
    <g filter="url(#b)" mask="url(#c)">
      <path fill="#F9F9F9" d="M146 2H18A16 16 0 0 0 2 18v8a16 16 0 0 0 16 16h128a16 16 0 0 0 16-16v-8a16 16 0 0 0-16-16Z"/>
      <path fill="#0065A9" d="m37.4 12.4-5-2.4a1.5 1.5 0 0 0-1.7.3l-16.4 15a1 1 0 0 0 0 1.4l1.3 1.2c.4.4 1 .4 1.3.1l19.7-15a1 1 0 0 1 1.6.9c0-.7-.3-1.2-.8-1.5Z"/>
      <g filter="url(#d)">
        <path fill="#007ACC" d="m37.4 31.4-5 2.5a1.5 1.5 0 0 1-1.7-.3l-16.4-15a1 1 0 0 1 0-1.4l1.4-1.2a1 1 0 0 1 1.2-.1l19.7 15a1 1 0 0 0 1.6-.9c0 .7-.3 1.2-.8 1.4Z"/>
      </g>
      <g filter="url(#e)">
        <path fill="#1F9CF0" d="M32.4 33.9a1.5 1.5 0 0 1-1.7-.3c.5.5 1.5.1 1.5-.7V11c0-.7-1-1.1-1.5-.6a1.5 1.5 0 0 1 1.7-.3l5 2.4c.5.3.8.8.8 1.4v16.3c0 .6-.3 1.1-.8 1.4l-5 2.4Z"/>
      </g>
      <path fill="url(#f)" fill-rule="evenodd" d="M31.2 33.9h1.2l5-2.4c.5-.3.8-.8.8-1.4V13.8c0-.6-.3-1.1-.8-1.4l-5-2.4a1.5 1.5 0 0 0-1.8.3l-9.5 8.8-4.2-3.2a1 1 0 0 0-1.3 0l-1.3 1.3a1 1 0 0 0 0 1.5l3.6 3.2-3.6 3.3a1 1 0 0 0 0 1.5l1.3 1.2c.4.4 1 .4 1.3.1l4.2-3.2 9.5 8.8.6.3Zm1-17.5L24.9 22l7.3 5.5v-11Z" clip-rule="evenodd" opacity=".3" style="mix-blend-mode:overlay"/>
      <path fill="#12100C" d="M54.4 22.3c0 1-.2 1.9-.6 2.6A4 4 0 0 1 50 27c-.8 0-1.5-.2-2.2-.5-.6-.4-1.2-1-1.5-1.7-.4-.7-.6-1.6-.6-2.6s.2-2 .6-2.6a4 4 0 0 1 3.7-2.3c.9 0 1.6.2 2.3.6a4 4 0 0 1 1.5 1.7c.4.7.6 1.6.6 2.6Zm-1.7 0c0-.7-.2-1.3-.4-1.8s-.5-1-.9-1.2c-.4-.2-.9-.4-1.4-.3-.5 0-1 0-1.3.3a4 4 0 0 0-1 1.2c-.2.5-.3 1-.3 1.8 0 .7.1 1.3.3 1.8.3.5.6.9 1 1.1.4.3.9.4 1.3.4.5 0 1-.1 1.4-.4.4-.2.7-.6 1-1.1.1-.5.3-1.1.3-1.8Zm3.2 7.4v-9.8h1.7v1.2l.4-.6.7-.5 1-.2a2.7 2.7 0 0 1 2.5 1.7c.3.5.4 1.2.4 2 0 .7-.1 1.4-.4 2a3 3 0 0 1-1 1.2c-.4.3-1 .4-1.5.4-.4 0-.7 0-1-.2a2 2 0 0 1-.7-.5l-.3-.5h-.1v3.8h-1.7Zm1.7-6.2c0 .4 0 .8.2 1.2 0 .3.3.6.5.8.3.2.6.3 1 .3l.9-.3c.2-.2.4-.5.5-.9.2-.3.2-.7.2-1.1 0-.5 0-.9-.2-1.2 0-.3-.3-.6-.5-.8-.3-.2-.6-.3-1-.3-.3 0-.6 0-.9.3-.2.2-.4.4-.5.8-.2.3-.2.7-.2 1.2Zm9.6 3.6a4 4 0 0 1-1.9-.4 3 3 0 0 1-1.1-1.3 4.2 4.2 0 0 1 0-3.9 3.1 3.1 0 0 1 2.9-1.7c.4 0 .9 0 1.2.2a2.8 2.8 0 0 1 1.8 1.8c.2.4.2 1 .2 1.6v.5h-5.8v-1.1h4.2c0-.3 0-.6-.2-.9l-.5-.6-.9-.2-.9.3-.6.6-.2.9v1c0 .4 0 .7.2 1l.7.7c.2.2.5.2 1 .2h.6l.5-.4.3-.5 1.6.2c-.1.4-.3.8-.6 1-.3.4-.6.6-1 .8a4 4 0 0 1-1.5.2Zm6.2-4.3V27h-1.6v-7h1.6v1l.8-1c.4-.2.8-.3 1.4-.3.4 0 .9.1 1.2.3.4.2.7.5.9 1 .2.3.3.8.3 1.4V27h-1.7v-4.3c0-.4-.1-.8-.4-1-.2-.3-.5-.5-1-.5-.3 0-.5 0-.8.2-.2.2-.4.3-.5.6l-.2.8ZM83 27v-7h1.7v7H83Zm.8-8.1a1 1 0 0 1-.9-.5V18c0-.3 0-.5.3-.6.1-.2.4-.3.6-.3.3 0 .5 0 .7.3.2.1.3.3.3.6 0 .2 0 .5-.3.6a1 1 0 0 1-.7.3Zm4.3 4V27h-1.7v-7H88v1c.2-.4.5-.7.9-1 .3-.2.8-.3 1.3-.3s.9.1 1.3.3c.3.2.6.5.8 1 .2.3.3.8.3 1.4V27h-1.7v-4.3c0-.4 0-.8-.3-1-.3-.3-.6-.5-1-.5-.3 0-.6 0-.8.2-.2.2-.4.3-.5.6-.2.2-.2.5-.2.8Zm10.8-5.4 2.4 7.5h.1l2.5-7.5h1.9l-3.4 9.5h-2L97 17.5h1.9Zm13.3 2.6a1.3 1.3 0 0 0-.6-.9 2 2 0 0 0-1.2-.3l-1 .1-.5.5a1 1 0 0 0-.1 1.1c0 .2.2.3.4.4l.5.2.6.2.9.2 1 .4.9.5c.2.2.5.5.6.8.2.3.2.6.2 1 0 .6-.1 1-.4 1.5a3 3 0 0 1-1.2 1c-.5.2-1.2.3-2 .3a5 5 0 0 1-1.9-.3c-.5-.2-1-.6-1.2-1a3 3 0 0 1-.5-1.6h1.7c0 .3 0 .6.3.8.1.2.4.4.7.5l1 .2c.3 0 .6 0 1-.2l.6-.5.2-.7c0-.2 0-.4-.2-.6l-.6-.4-.9-.3-1-.3c-.8-.2-1.4-.5-1.9-.9-.4-.4-.7-1-.7-1.6 0-.6.2-1 .5-1.5a3 3 0 0 1 1.2-1c.5-.2 1.1-.3 1.8-.3s1.3.1 1.8.4c.5.2.9.5 1.2 1 .2.3.4.8.4 1.3h-1.6Zm14.6.6H125a2.2 2.2 0 0 0-.8-1.3 2 2 0 0 0-.7-.3 2.6 2.6 0 0 0-2.2.2c-.4.3-.7.7-.9 1.2-.2.5-.3 1-.3 1.8 0 .7 0 1.3.3 1.8.2.5.5.9 1 1.1.3.3.8.4 1.3.4l.8-.1.7-.4c.4-.3.7-.7.8-1.2h1.7a3.7 3.7 0 0 1-1.3 2.3c-.3.3-.7.5-1.2.7l-1.5.2c-.9 0-1.6-.2-2.2-.5a4 4 0 0 1-1.6-1.7c-.4-.7-.6-1.6-.6-2.6s.2-2 .6-2.6a4 4 0 0 1 3.8-2.3c.5 0 1 0 1.4.2l1.3.7.8 1c.3.4.4 1 .5 1.4Zm4.6 6.4c-.7 0-1.3-.1-1.8-.4a3 3 0 0 1-1.2-1.3 4 4 0 0 1-.4-2c0-.6.1-1.3.4-1.8.3-.6.7-1 1.2-1.3a3.5 3.5 0 0 1 3.6 0c.5.3.9.7 1.1 1.3a3.8 3.8 0 0 1 0 3.8 3 3 0 0 1-1.1 1.3c-.5.3-1.1.4-1.8.4Zm0-1.3c.4 0 .7-.1 1-.3.2-.2.4-.5.5-.9l.2-1.1c0-.4 0-.8-.2-1.2-.1-.3-.3-.6-.6-.8-.2-.3-.5-.4-1-.4-.3 0-.6.1-.9.4l-.6.8-.1 1.2.1 1.1.6.9c.3.2.6.3 1 .3Zm7.4 1.3a2.7 2.7 0 0 1-2.5-1.7 4 4 0 0 1-.4-2c0-.7.1-1.4.4-2a3 3 0 0 1 1-1.2 2.7 2.7 0 0 1 2.5-.2l.7.5.3.6h.1v-3.6h1.7V27h-1.7v-1.1l-.4.5a2 2 0 0 1-1.7.7Zm.5-1.3.9-.3.6-.8c0-.4.2-.8.1-1.2l-.1-1.2c-.2-.4-.3-.6-.6-.8-.3-.2-.6-.3-1-.3-.3 0-.6 0-.9.3l-.5.8-.2 1.2c0 .4 0 .8.2 1.1.1.4.3.7.6.9.2.2.5.3.9.3Zm8.2 1.3c-.7 0-1.3-.1-1.8-.4a3 3 0 0 1-1.2-1.3c-.3-.5-.4-1.2-.4-1.9s.1-1.4.4-2a3.1 3.1 0 0 1 3-1.7c.4 0 .8 0 1.2.2a2.8 2.8 0 0 1 1.7 1.8c.2.4.3 1 .3 1.6v.5h-5.8v-1.1h4.2l-.2-.9-.6-.6-.9-.2-.9.3-.6.6-.2.9v1c0 .4.1.7.3 1 .1.3.3.5.6.7.3.2.6.2 1 .2h.6l.5-.4c.2-.1.3-.3.3-.5l1.6.2c-.1.4-.3.8-.6 1-.3.4-.6.6-1 .8a4 4 0 0 1-1.5.2Z"/>
    </g>
  </g>
  <defs>
    <filter id="b" width="164" height="44" x="0" y=".5" color-interpolation-filters="sRGB" filterUnits="userSpaceOnUse">
      <feFlood flood-opacity="0" result="BackgroundImageFix"/>
      <feColorMatrix in="SourceAlpha" result="hardAlpha" values="0 0 0 0 0 0 0 0 0 0 0 0 0 0 0 0 0 0 127 0"/>
      <feOffset dy=".5"/>
      <feGaussianBlur stdDeviation="1"/>
      <feColorMatrix values="0 0 0 0 0 0 0 0 0 0 0 0 0 0 0 0 0 0 0.1 0"/>
      <feBlend in2="BackgroundImageFix" result="effect1_dropShadow_32_8"/>
      <feBlend in="SourceGraphic" in2="effect1_dropShadow_32_8" result="shape"/>
    </filter>
    <filter id="d" width="40.9" height="35" x="5.7" y="7.4" color-interpolation-filters="sRGB" filterUnits="userSpaceOnUse">
      <feFlood flood-opacity="0" result="BackgroundImageFix"/>
      <feColorMatrix in="SourceAlpha" result="hardAlpha" values="0 0 0 0 0 0 0 0 0 0 0 0 0 0 0 0 0 0 127 0"/>
      <feOffset/>
      <feGaussianBlur stdDeviation="4.2"/>
      <feColorMatrix values="0 0 0 0 0 0 0 0 0 0 0 0 0 0 0 0 0 0 0.25 0"/>
      <feBlend in2="BackgroundImageFix" mode="overlay" result="effect1_dropShadow_32_8"/>
      <feBlend in="SourceGraphic" in2="effect1_dropShadow_32_8" result="shape"/>
    </filter>
    <filter id="e" width="24.2" height="40.8" x="22.3" y="1.6" color-interpolation-filters="sRGB" filterUnits="userSpaceOnUse">
      <feFlood flood-opacity="0" result="BackgroundImageFix"/>
      <feColorMatrix in="SourceAlpha" result="hardAlpha" values="0 0 0 0 0 0 0 0 0 0 0 0 0 0 0 0 0 0 127 0"/>
      <feOffset/>
      <feGaussianBlur stdDeviation="4.2"/>
      <feColorMatrix values="0 0 0 0 0 0 0 0 0 0 0 0 0 0 0 0 0 0 0.25 0"/>
      <feBlend in2="BackgroundImageFix" mode="overlay" result="effect1_dropShadow_32_8"/>
      <feBlend in="SourceGraphic" in2="effect1_dropShadow_32_8" result="shape"/>
    </filter>
    <linearGradient id="f" x1="26.1" x2="26.1" y1="9.9" y2="34" gradientUnits="userSpaceOnUse">
      <stop stop-color="#fff"/>
      <stop offset="1" stop-color="#fff" stop-opacity="0"/>
    </linearGradient>
    <clipPath id="a">
      <path fill="#fff" d="M0 0h164v45H0z"/>
    </clipPath>
  </defs>
</svg>
