<svg xmlns="http://www.w3.org/2000/svg" fill="none" viewBox="0 0 160 45">
  <g filter="url(#a)">
    <rect width="156" height="40" x="2" y="2" fill="#F9F9F9" rx="16"/>
    <path fill="url(#b)" fill-rule="evenodd" d="M30.4 11.2c.6 1 .3 2.5-.8 3.1l-7 4.2a.4.4 0 0 0-.2.3v6.8l.2.3 5.7 3.4h.4l5.7-3.4a.4.4 0 0 0 .2-.3v-4.3l-5 3c-1 .6-2.4.2-3-1-.6-1-.3-2.5.8-3.1l7-4.1c2-1.3 4.6.3 4.6 2.8v6.7a5 5 0 0 1-2.4 4.3l-5.7 3.4a4.6 4.6 0 0 1-4.8 0L20.4 30a5 5 0 0 1-2.4-4.3v-6.8a5 5 0 0 1 2.4-4.3l7-4.2c1-.6 2.4-.2 3 .9z" clip-rule="evenodd"/>
    <path fill="#F9F9F9" d="M47 12.5h95v-1H47z"/>
    <path fill="#12100C" d="M52.5 27.8c2.8 0 4.9-2 4.9-5.2 0-3.1-2.1-5.2-4.9-5.2s-4.8 2-4.8 5.2c0 3.3 2 5.2 4.8 5.2zm0-1.6c-1.7 0-2.9-1.3-2.9-3.6 0-2.2 1.2-3.6 3-3.6s2.9 1.4 2.9 3.6c0 2.3-1.2 3.6-3 3.6zm8 4.2v-3.2l-.1-.6c.4.7 1 1.2 2.1 1.2 1.8 0 3.1-1.5 3.1-3.7 0-2.1-1.2-3.7-3-3.7-1 0-1.8.5-2.2 1.2v-.9h-1.7v9.7h1.7zm1.6-4c-1 0-1.7-1-1.7-2.3 0-1.4.7-2.3 1.7-2.3 1.1 0 1.8 1 1.8 2.3 0 1.4-.7 2.3-1.8 2.3zm7.9 1.4c1.8 0 3-1.1 3.2-2.5h-1.8c0 .7-.7 1.1-1.4 1.1-1 0-1.7-.8-1.7-1.9h5v-.4c0-2.2-1.3-3.7-3.4-3.7-2 0-3.4 1.5-3.4 3.7 0 2.3 1.4 3.7 3.5 3.7zm-1.8-4.5c.1-1 .8-1.6 1.7-1.6 1 0 1.5.6 1.6 1.6h-3.3zm8 4.2v-4c0-1 .7-1.7 1.5-1.7s1.3.6 1.3 1.6v4.1h1.7v-4.3c0-1.7-.9-2.8-2.4-2.8-1 0-1.7.6-2.1 1.2v-.9h-1.7v6.8h1.7zm9-7.9h1.7v-1.8h-1.7v1.8zm0 1v6.9h1.7v-6.8h-1.7zm5.1 6.9v-4c0-1 .6-1.7 1.5-1.7.7 0 1.2.6 1.2 1.6v4.1h1.7v-4.3c0-1.7-.8-2.8-2.4-2.8-1 0-1.7.6-2 1.2v-.9h-1.7v6.8h1.7zm13.2.3c1.6 0 2.6-.7 3-1.6v1.3h1.6v-5.2h-4.3v1.5h2.6v.1c0 1.4-1.1 2.3-2.6 2.3-1.8 0-3-1.4-3-3.6s1.3-3.6 3-3.6c1.4 0 2.2.8 2.4 1.7h1.9c-.2-1.9-1.8-3.3-4.3-3.3-3 0-4.9 2.2-4.9 5.2 0 3.1 1.9 5.2 4.6 5.2zm6.1-8.2h1.8v-1.8h-1.8v1.8zm0 1v6.9h1.7v-6.8h-1.7zm6.5 7 1-.1v-1.3h-.6c-.7 0-1-.4-1-1V22h1.7v-1.3h-1.7v-2.5h-1.7v2.5h-1.5V22h1.5v3.4c0 1.5.8 2.2 2.3 2.2zm4 2.8v-3.2l-.1-.6c.4.7 1 1.2 2.1 1.2 1.8 0 3-1.5 3-3.7 0-2.1-1.1-3.7-2.9-3.7-1 0-1.8.5-2.2 1.2v-.9h-1.7v9.7h1.7zm1.6-4c-1 0-1.8-1-1.8-2.3 0-1.4.8-2.3 1.8-2.3 1.1 0 1.8 1 1.8 2.3 0 1.4-.7 2.3-1.8 2.3zm7.9 1.4c2 0 3.5-1.4 3.5-3.7 0-2.2-1.5-3.7-3.5-3.7S126 22 126 24.1c0 2.3 1.4 3.7 3.5 3.7zm0-1.4c-1 0-1.8-.8-1.8-2.3 0-1.5.8-2.3 1.8-2.3s1.8.8 1.8 2.3c0 1.5-.8 2.3-1.8 2.3zm7.5 1.4c1.3 0 2-.7 2.2-1.2v.9h1.6v-9.8h-1.7v3.9c-.3-.6-1-1.2-2-1.2-1.6 0-3.2 1.3-3.2 3.7 0 2.4 1.3 3.7 3.1 3.7zm.4-1.4c-1 0-1.7-.9-1.7-2.3s.7-2.3 1.7-2.3 1.8.9 1.8 2.3-.7 2.3-1.8 2.3z"/>
  </g>
  <defs>
    <linearGradient id="b" x1="33.8" x2="22.4" y1="13.6" y2="30.9" gradientUnits="userSpaceOnUse">
      <stop stop-color="#FFB45B"/>
      <stop offset="1" stop-color="#FF8A00"/>
    </linearGradient>
    <filter id="a" width="160" height="44" x="0" y=".5" color-interpolation-filters="sRGB" filterUnits="userSpaceOnUse">
      <feFlood flood-opacity="0" result="BackgroundImageFix"/>
      <feColorMatrix in="SourceAlpha" values="0 0 0 0 0 0 0 0 0 0 0 0 0 0 0 0 0 0 127 0"/>
      <feOffset dy=".5"/>
      <feGaussianBlur stdDeviation="1"/>
      <feColorMatrix values="0 0 0 0 0 0 0 0 0 0 0 0 0 0 0 0 0 0 0.1 0"/>
      <feBlend in2="BackgroundImageFix" result="effect1_dropShadow"/>
      <feBlend in="SourceGraphic" in2="effect1_dropShadow" result="shape"/>
    </filter>
  </defs>
</svg>
